<svg width="1279" height="272" viewBox="0 0 1279 272" fill="none" xmlns="http://www.w3.org/2000/svg">
<path fill-rule="evenodd" clip-rule="evenodd" d="M-1 216.375L52.3333 228.395C105.667 240.416 212.333 264.458 319 270.468C425.667 276.479 532.333 264.458 639 240.416C745.667 216.375 852.333 180.312 959 168.291C1065.67 156.271 1172.33 168.291 1225.67 174.302L1279 180.312V0H1225.67C1172.33 0 1065.67 0 959 0C852.333 0 745.667 0 639 0C532.333 0 425.667 0 319 0C212.333 0 105.667 0 52.3333 0H-1V216.375Z" fill="#E6FBE6"/>
</svg>
