<svg width="1280" height="244" viewBox="0 0 1280 244" fill="none" xmlns="http://www.w3.org/2000/svg">
<path fill-rule="evenodd" clip-rule="evenodd" d="M0 99.8012L53.3333 117.801C106.667 135.801 213.333 171.801 320 153.801C426.667 135.801 533.333 63.8012 640 27.8012C746.667 -8.19879 853.333 -8.19879 960 21.8012C1066.67 51.8012 1173.33 111.801 1226.67 141.801L1280 171.801V243.801H1226.67C1173.33 243.801 1066.67 243.801 960 243.801C853.333 243.801 746.667 243.801 640 243.801C533.333 243.801 426.667 243.801 320 243.801C213.333 243.801 106.667 243.801 53.3333 243.801H0V99.8012Z" fill="#C8E6C7"/>
</svg>
