<svg width="1280" height="259" viewBox="0 0 1280 259" fill="none" xmlns="http://www.w3.org/2000/svg">
<path fill-rule="evenodd" clip-rule="evenodd" d="M0 78.541L53.3333 54.541C106.667 30.541 213.333 -17.459 320 6.54102C426.667 30.541 533.333 126.541 640 132.541C746.667 138.541 853.333 54.541 960 42.541C1066.67 30.541 1173.33 90.541 1226.67 120.541L1280 150.541V258.541H1226.67C1173.33 258.541 1066.67 258.541 960 258.541C853.333 258.541 746.667 258.541 640 258.541C533.333 258.541 426.667 258.541 320 258.541C213.333 258.541 106.667 258.541 53.3333 258.541H0V78.541Z" fill="#E6FBE6"/>
</svg>
