<svg width="1280" height="185" viewBox="0 0 1280 185" fill="none" xmlns="http://www.w3.org/2000/svg">
<path fill-rule="evenodd" clip-rule="evenodd" d="M1280 82.2222L1226.67 85.6481C1173.33 89.0741 1066.67 95.9259 960 109.63C853.333 123.333 746.667 143.889 640 150.741C533.333 157.593 426.667 150.741 320 123.333C213.333 95.9259 106.667 47.963 53.3333 23.9815L-0.00012207 0V185H53.3333C106.667 185 213.333 185 320 185C426.667 185 533.333 185 640 185C746.667 185 853.333 185 960 185C1066.67 185 1173.33 185 1226.67 185H1280V82.2222Z" fill="#E6EEE5"/>
</svg>
