<svg width="1280" height="190" viewBox="0 0 1280 190" fill="none" xmlns="http://www.w3.org/2000/svg">
<path fill-rule="evenodd" clip-rule="evenodd" d="M-10 144.038L21.175 132.035C51.275 120.032 112.55 96.0255 173.825 108.029C236.175 120.032 297.45 168.045 358.725 156.041C420 144.038 481.275 72.0191 542.55 60.016C603.825 48.0128 666.175 96.0255 727.45 96.0255C788.725 96.0255 850 48.0128 911.275 66.0176C972.55 84.0223 1033.83 168.045 1096.18 186.049C1157.45 204.054 1218.73 156.041 1248.83 132.035L1280 108.029V0H1248.83C1218.73 0 1157.45 0 1096.18 0C1033.83 0 972.55 0 911.275 0C850 0 788.725 0 727.45 0C666.175 0 603.825 0 542.55 0C481.275 0 420 0 358.725 0C297.45 0 236.175 0 173.825 0C112.55 0 51.275 0 21.175 0H-10V144.038Z" fill="#C8E6C7"/>
</svg>
