<svg width="909" height="213" viewBox="0 0 909 213" fill="none" xmlns="http://www.w3.org/2000/svg">
<g filter="url(#filter0_d_151_4503)">
<path fill-rule="evenodd" clip-rule="evenodd" d="M5 182.8L42 155.867C80 128.933 155 75.0667 230 58.6074C305 41.4 380 61.6 455 61.6C529 61.6 604 41.4 679 61.6C754 81.8 829 142.4 867 173.074L904 203V1H867C829 1 754 1 679 1C604 1 529 1 455 1C380 1 305 1 230 1C155 1 80 1 42 1H5V182.8Z" fill="#E6EEE5"/>
<path fill-rule="evenodd" clip-rule="evenodd" d="M5 182.8L42 155.867C80 128.933 155 75.0667 230 58.6074C305 41.4 380 61.6 455 61.6C529 61.6 604 41.4 679 61.6C754 81.8 829 142.4 867 173.074L904 203V1H867C829 1 754 1 679 1C604 1 529 1 455 1C380 1 305 1 230 1C155 1 80 1 42 1H5V182.8Z" stroke="black"/>
<path fill-rule="evenodd" clip-rule="evenodd" d="M5 182.8L42 155.867C80 128.933 155 75.0667 230 58.6074C305 41.4 380 61.6 455 61.6C529 61.6 604 41.4 679 61.6C754 81.8 829 142.4 867 173.074L904 203V1H867C829 1 754 1 679 1C604 1 529 1 455 1C380 1 305 1 230 1C155 1 80 1 42 1H5V182.8Z" stroke="black" stroke-opacity="0.2"/>
<path fill-rule="evenodd" clip-rule="evenodd" d="M5 182.8L42 155.867C80 128.933 155 75.0667 230 58.6074C305 41.4 380 61.6 455 61.6C529 61.6 604 41.4 679 61.6C754 81.8 829 142.4 867 173.074L904 203V1H867C829 1 754 1 679 1C604 1 529 1 455 1C380 1 305 1 230 1C155 1 80 1 42 1H5V182.8Z" stroke="black" stroke-opacity="0.2"/>
<path fill-rule="evenodd" clip-rule="evenodd" d="M5 182.8L42 155.867C80 128.933 155 75.0667 230 58.6074C305 41.4 380 61.6 455 61.6C529 61.6 604 41.4 679 61.6C754 81.8 829 142.4 867 173.074L904 203V1H867C829 1 754 1 679 1C604 1 529 1 455 1C380 1 305 1 230 1C155 1 80 1 42 1H5V182.8Z" stroke="black" stroke-opacity="0.2"/>
</g>
<defs>
<filter id="filter0_d_151_4503" x="0.5" y="0.5" width="908" height="211.547" filterUnits="userSpaceOnUse" color-interpolation-filters="sRGB">
<feFlood flood-opacity="0" result="BackgroundImageFix"/>
<feColorMatrix in="SourceAlpha" type="matrix" values="0 0 0 0 0 0 0 0 0 0 0 0 0 0 0 0 0 0 127 0" result="hardAlpha"/>
<feOffset dy="4"/>
<feGaussianBlur stdDeviation="2"/>
<feComposite in2="hardAlpha" operator="out"/>
<feColorMatrix type="matrix" values="0 0 0 0 0 0 0 0 0 0 0 0 0 0 0 0 0 0 0.25 0"/>
<feBlend mode="normal" in2="BackgroundImageFix" result="effect1_dropShadow_151_4503"/>
<feBlend mode="normal" in="SourceGraphic" in2="effect1_dropShadow_151_4503" result="shape"/>
</filter>
</defs>
</svg>
