<svg width="899" height="192" viewBox="0 0 899 192" fill="none" xmlns="http://www.w3.org/2000/svg">
<path fill-rule="evenodd" clip-rule="evenodd" d="M0 108.321H21C43 108.321 86 108.321 128 108.321C171 108.321 214 108.321 257 108.321C300 108.321 342 108.321 385 117.619C428 126.916 471 145.512 514 122.784C557 99.0234 599 33.9398 642 11.2122C685 -12.5485 728 6.04679 771 24.6421C813 43.2374 856 61.8327 878 71.1304L899 80.4281V192H878C856 192 813 192 771 192C728 192 685 192 642 192C599 192 557 192 514 192C471 192 428 192 385 192C342 192 300 192 257 192C214 192 171 192 128 192C86 192 43 192 21 192H0V108.321Z" fill="#E6EEE5"/>
</svg>
