<svg width="34" height="20" viewBox="0 0 34 20" fill="none" xmlns="http://www.w3.org/2000/svg">
<path fill-rule="evenodd" clip-rule="evenodd" d="M0.943712 1.27707C1.33439 0.886505 1.8642 0.667098 2.41663 0.667098C2.96905 0.667098 3.49886 0.886505 3.88954 1.27707L17 14.3875L30.1104 1.27707C30.3026 1.07809 30.5324 0.919376 30.7866 0.810191C31.0408 0.701005 31.3142 0.643535 31.5908 0.641131C31.8674 0.638727 32.1417 0.69144 32.3978 0.796191C32.6538 0.900943 32.8864 1.05564 33.082 1.25125C33.2776 1.44686 33.4323 1.67946 33.5371 1.9355C33.6418 2.19153 33.6946 2.46586 33.6921 2.74249C33.6897 3.01911 33.6323 3.29249 33.5231 3.54666C33.4139 3.80084 33.2552 4.03072 33.0562 4.2229L18.4729 18.8062C18.0822 19.1968 17.5524 19.4162 17 19.4162C16.4475 19.4162 15.9177 19.1968 15.527 18.8062L0.943712 4.2229C0.553148 3.83222 0.33374 3.30241 0.33374 2.74999C0.33374 2.19756 0.553148 1.66775 0.943712 1.27707V1.27707Z" fill="#444444"/>
</svg>
