<svg width="25" height="22" viewBox="0 0 25 22" fill="none" xmlns="http://www.w3.org/2000/svg">
<path fill-rule="evenodd" clip-rule="evenodd" d="M11.7813 0.849954C11.975 0.665278 12.2324 0.562256 12.5 0.562256C12.7676 0.562256 13.025 0.665278 13.2188 0.849954L21.5521 8.78641L24.1563 11.2656C24.3565 11.4562 24.4729 11.7186 24.4798 11.995C24.4866 12.2714 24.3833 12.5392 24.1927 12.7395C24.0021 12.9398 23.7397 13.0562 23.4633 13.063C23.1869 13.0699 22.919 12.9666 22.7188 12.776L21.875 11.9708V19.8333C21.875 20.3858 21.6555 20.9157 21.2648 21.3064C20.8741 21.6971 20.3442 21.9166 19.7917 21.9166H5.20834C4.6558 21.9166 4.1259 21.6971 3.7352 21.3064C3.3445 20.9157 3.125 20.3858 3.125 19.8333V11.9708L2.28125 12.775C2.08123 12.9656 1.81368 13.0689 1.53746 13.0623C1.26123 13.0557 0.998959 12.9396 0.808335 12.7395C0.617711 12.5395 0.51435 12.272 0.520992 11.9957C0.527634 11.7195 0.643734 11.4572 0.843752 11.2666L3.44792 8.78641L11.7813 0.848913V0.849954ZM5.20834 9.98746V19.8333H9.375V14.625C9.375 13.7962 9.70424 13.0013 10.2903 12.4152C10.8763 11.8292 11.6712 11.5 12.5 11.5C13.3288 11.5 14.1237 11.8292 14.7097 12.4152C15.2958 13.0013 15.625 13.7962 15.625 14.625V19.8333H19.7917V9.98746L12.5 3.04162L5.20834 9.98641V9.98746ZM13.5417 19.8333V14.625C13.5417 14.3487 13.4319 14.0837 13.2366 13.8884C13.0412 13.693 12.7763 13.5833 12.5 13.5833C12.2237 13.5833 11.9588 13.693 11.7634 13.8884C11.5681 14.0837 11.4583 14.3487 11.4583 14.625V19.8333H13.5417Z" fill="black"/>
</svg>
