<svg width="21" height="17" viewBox="0 0 21 17" fill="none" xmlns="http://www.w3.org/2000/svg">
<path fill-rule="evenodd" clip-rule="evenodd" d="M0.65001 1.38341C0.916678 1.00829 1.26901 0.702211 1.67773 0.490604C2.08645 0.278997 2.53976 0.167971 3.00001 0.166748H18C18.975 0.166748 19.8261 0.656332 20.35 1.38341C20.7073 1.88133 20.9167 2.49487 20.9167 3.15321V13.847C20.9167 15.4605 19.6458 16.8334 18 16.8334H3.00001C1.35418 16.8334 0.0833435 15.4605 0.0833435 13.847V3.15321C0.0833435 2.49487 0.291677 1.88133 0.65001 1.38237V1.38341ZM3.13855 2.25008L9.72918 9.50529C9.82681 9.6127 9.94581 9.69853 10.0786 9.75726C10.2113 9.81598 10.3549 9.84632 10.5 9.84632C10.6452 9.84632 10.7887 9.81598 10.9215 9.75726C11.0542 9.69853 11.1732 9.6127 11.2708 9.50529L17.8615 2.25008H3.13855ZM18.8333 4.27925L12.8125 10.9063C12.5196 11.2286 12.1626 11.486 11.7644 11.6622C11.3661 11.8384 10.9355 11.9294 10.5 11.9294C10.0645 11.9294 9.63389 11.8384 9.23565 11.6622C8.83742 11.486 8.48041 11.2286 8.18751 10.9063L2.16668 4.27925V13.847C2.16668 14.3824 2.57501 14.7501 3.00001 14.7501H18C18.425 14.7501 18.8333 14.3824 18.8333 13.847V4.27925Z" fill="black"/>
</svg>
