<svg width="21" height="21" viewBox="0 0 21 21" fill="none" xmlns="http://www.w3.org/2000/svg">
<path fill-rule="evenodd" clip-rule="evenodd" d="M7.59063 13.4094C10.0052 15.824 12.2479 17.1699 13.9167 17.9178C15.374 18.5709 17.0938 18.0584 18.4344 16.7178L18.7406 16.4105L15.0573 14.0667C14.3573 15.0876 13.0333 15.6865 11.7115 15.1292C10.7104 14.7063 9.38542 13.9834 8.20105 12.799C7.01667 11.6146 6.2948 10.2896 5.87188 9.28861C5.31355 7.96673 5.91146 6.64277 6.93334 5.94277L4.58959 2.25944L4.2823 2.56569C2.94167 3.90631 2.43021 5.62611 3.0823 7.0834C3.83021 8.75215 5.17604 10.9949 7.59063 13.4094ZM13.0656 19.8188C11.175 18.9719 8.7198 17.4844 6.11771 14.8824C3.51563 12.2813 2.02813 9.82506 1.18021 7.93444C0.0604201 5.43444 1.08334 2.81986 2.80938 1.09277L3.11563 0.785482C3.33619 0.564771 3.60352 0.396423 3.89787 0.292872C4.19222 0.189321 4.50606 0.153211 4.81624 0.187208C5.12641 0.221205 5.42499 0.324441 5.68991 0.489292C5.95484 0.654144 6.17936 0.8764 6.34688 1.13965L9.2948 5.77506C9.37288 5.89802 9.4243 6.03599 9.44575 6.18006C9.4672 6.32412 9.4582 6.47109 9.41932 6.61146C9.38045 6.75183 9.31257 6.88249 9.22007 6.995C9.12757 7.10751 9.0125 7.19937 8.88229 7.26465L8.22292 7.59486C7.77292 7.81986 7.68125 8.21673 7.79063 8.47819C8.14375 9.31465 8.73438 10.3855 9.67396 11.3261C10.6146 12.2657 11.6854 12.8563 12.5219 13.2094C12.7833 13.3199 13.1802 13.2271 13.4052 12.7771L13.7354 12.1178C13.8006 11.9875 13.8924 11.8723 14.0049 11.7797C14.1173 11.6871 14.248 11.6191 14.3884 11.5801C14.5287 11.5412 14.6757 11.5321 14.8198 11.5534C14.964 11.5748 15.102 11.6262 15.225 11.7042L19.8604 14.6532C20.1237 14.8207 20.3459 15.0452 20.5108 15.3102C20.6756 15.5751 20.7789 15.8737 20.8129 16.1838C20.8469 16.494 20.8107 16.8079 20.7072 17.1022C20.6036 17.3965 20.4353 17.6639 20.2146 17.8844L19.9073 18.1907C18.1813 19.9178 15.5667 20.9396 13.0656 19.8188Z" fill="black"/>
</svg>
