<svg width="35" height="35" viewBox="0 0 35 35" fill="none" xmlns="http://www.w3.org/2000/svg">
<path fill-rule="evenodd" clip-rule="evenodd" d="M13.9265 0C13.4527 0 12.9982 0.184374 12.6631 0.512563C12.328 0.840752 12.1398 1.28587 12.1398 1.75V4.5185C10.9076 5.00735 9.75113 5.66234 8.70391 6.4645L6.25429 5.0785C5.84392 4.84645 5.35623 4.78356 4.89852 4.90368C4.44081 5.02379 4.05056 5.31707 3.81361 5.719L0.240143 11.781C0.00321802 12.1829 -0.0609876 12.6606 0.0616501 13.1089C0.184288 13.5572 0.483724 13.9394 0.894088 14.1715L3.34192 15.5558C3.15867 16.8457 3.15867 18.1543 3.34192 19.4443L0.894088 20.8268C0.69066 20.9417 0.512354 21.0947 0.36937 21.2772C0.226386 21.4596 0.121527 21.6679 0.0607913 21.8901C5.55586e-05 22.1123 -0.015366 22.344 0.0154088 22.572C0.0461835 22.8001 0.122551 23.0199 0.240143 23.219L3.81361 29.281C4.05056 29.6829 4.44081 29.9762 4.89852 30.0963C5.35623 30.2164 5.84392 30.1536 6.25429 29.9215L8.70391 28.5355C9.742 29.3318 10.898 29.988 12.1398 30.4815V33.25C12.1398 33.7141 12.328 34.1593 12.6631 34.4874C12.9982 34.8156 13.4527 35 13.9265 35H21.0735C21.5473 35 22.0018 34.8156 22.3369 34.4874C22.672 34.1593 22.8602 33.7141 22.8602 33.25V30.4815C24.0924 29.9926 25.2488 29.3376 26.2961 28.5355L28.7457 29.9215C29.1561 30.1536 29.6438 30.2164 30.1015 30.0963C30.5592 29.9762 30.9494 29.6829 31.1864 29.281L34.7599 23.219C34.9968 22.8171 35.061 22.3394 34.9384 21.8911C34.8157 21.4428 34.5163 21.0606 34.1059 20.8285L31.6581 19.4443C31.8413 18.1543 31.8413 16.8457 31.6581 15.5558L34.1059 14.1733C34.3093 14.0583 34.4876 13.9053 34.6306 13.7228C34.7736 13.5404 34.8785 13.3321 34.9392 13.1099C34.9999 12.8877 35.0154 12.656 34.9846 12.428C34.9538 12.1999 34.8774 11.9801 34.7599 11.781L31.1864 5.719C30.9494 5.31707 30.5592 5.02379 30.1015 4.90368C29.6438 4.78356 29.1561 4.84645 28.7457 5.0785L26.2961 6.4645C25.2489 5.66236 24.0924 5.00737 22.8602 4.5185V1.75C22.8602 1.28587 22.672 0.840752 22.3369 0.512563C22.0018 0.184374 21.5473 0 21.0735 0H13.9265ZM15.7133 5.7575V3.5H19.2867V5.7575C19.2869 6.13443 19.4114 6.50122 19.6416 6.8033C19.8718 7.10537 20.1954 7.32658 20.5643 7.434C22.173 7.90455 23.6462 8.73901 24.8649 9.87C25.1445 10.1295 25.5022 10.2935 25.8847 10.3376C26.2672 10.3818 26.6541 10.3037 26.9876 10.115L28.9851 8.9845L30.7719 12.0155L28.7761 13.1443C28.443 13.3326 28.1809 13.6211 28.0287 13.9669C27.8764 14.3128 27.8421 14.6975 27.931 15.064C28.3196 16.6657 28.3196 18.3343 27.931 19.936C27.8421 20.3025 27.8764 20.6872 28.0287 21.0331C28.1809 21.3789 28.443 21.6674 28.7761 21.8558L30.7719 22.9845L28.9851 26.0155L26.9858 24.885C26.6525 24.6967 26.266 24.6189 25.8839 24.663C25.5017 24.7072 25.1444 24.8709 24.8649 25.13C23.6462 26.2611 22.173 27.0956 20.5643 27.566C20.1954 27.6734 19.8718 27.8946 19.6416 28.1967C19.4114 28.4988 19.2869 28.8656 19.2867 29.2425V31.5H15.7133V29.2425C15.7131 28.8656 15.5886 28.4988 15.3584 28.1967C15.1282 27.8946 14.8046 27.6734 14.4358 27.566C12.827 27.0955 11.3538 26.2611 10.1351 25.13C9.85549 24.8705 9.49779 24.7065 9.11529 24.6624C8.73278 24.6182 8.34595 24.6963 8.01244 24.885L6.01487 26.0155L4.22814 22.9845L6.22392 21.8558C6.55695 21.6674 6.81907 21.3789 6.97133 21.0331C7.12359 20.6872 7.15786 20.3025 7.06904 19.936C6.68038 18.3343 6.68038 16.6657 7.06904 15.064C7.15786 14.6975 7.12359 14.3128 6.97133 13.9669C6.81907 13.6211 6.55695 13.3326 6.22392 13.1443L4.22814 12.0155L6.01487 8.9845L8.01244 10.115C8.34595 10.3037 8.73278 10.3818 9.11529 10.3376C9.49779 10.2935 9.85549 10.1295 10.1351 9.87C11.3538 8.73901 12.827 7.90455 14.4358 7.434C14.8046 7.32658 15.1282 7.10537 15.3584 6.8033C15.5886 6.50122 15.7131 6.13443 15.7133 5.7575ZM13.9265 17.5C13.9265 16.5717 14.303 15.6815 14.9732 15.0251C15.6433 14.3688 16.5523 14 17.5 14C18.4477 14 19.3567 14.3688 20.0268 15.0251C20.697 15.6815 21.0735 16.5717 21.0735 17.5C21.0735 18.4283 20.697 19.3185 20.0268 19.9749C19.3567 20.6313 18.4477 21 17.5 21C16.5523 21 15.6433 20.6313 14.9732 19.9749C14.303 19.3185 13.9265 18.4283 13.9265 17.5ZM17.5 10.5C15.6045 10.5 13.7867 11.2375 12.4464 12.5503C11.106 13.863 10.3531 15.6435 10.3531 17.5C10.3531 19.3565 11.106 21.137 12.4464 22.4498C13.7867 23.7625 15.6045 24.5 17.5 24.5C19.3955 24.5 21.2133 23.7625 22.5536 22.4498C23.894 21.137 24.6469 19.3565 24.6469 17.5C24.6469 15.6435 23.894 13.863 22.5536 12.5503C21.2133 11.2375 19.3955 10.5 17.5 10.5Z" fill="black"/>
</svg>
